<svg width="536.9900146484375px" height="123.68000183105468px" xmlns="http://www.w3.org/2000/svg" viewBox="-18.49500732421876 13.159999084472659 536.9900146484375 123.68000183105468" style="background: rgba(0, 0, 0, 0);" preserveAspectRatio="xMidYMid"><defs><filter id="editing-extrusion" x="-100%" y="-100%" width="300%" height="300%"><feFlood result="color1" flood-color="#444"></feFlood><feConvolveMatrix order="8,8" divisor="1" kernelMatrix="1 0 0 0 0 0 0 0 0 1 0 0 0 0 0 0 0 0 1 0 0 0 0 0 0 0 0 1 0 0 0 0 0 0 0 0 1 0 0 0 0 0 0 0 0 1 0 0 0 0 0 0 0 0 1 0 0 0 0 0 0 0 0 1" in="SourceAlpha" result="extrude"></feConvolveMatrix><feComposite in="color1" in2="extrude" result="comp-extrude" operator="in"></feComposite><feOffset dx="4" dy="4" in="comp-extrude" result="offset-extrude"></feOffset><feMerge><feMergeNode in="offset-extrude"></feMergeNode><feMergeNode in="SourceGraphic"></feMergeNode></feMerge></filter></defs><g filter="url(#editing-extrusion)"><g transform="translate(54.80001258850098, 98.13500595092773)"><path d="M33.66 0L27.33-38.34L20.99 0L15.55 0L4.99-44.80L8.83-44.80L17.98-4.42L24.83-44.80L29.82-44.80L36.67-4.42L45.70-44.80L49.54-44.80L39.10 0L33.66 0ZM75.33-2.24L75.33-2.24Q73.02-0.77 70.08 0L70.08 0L70.08 0Q67.14 0.77 64.19 0.77L64.19 0.77L64.19 0.77Q59.46 0.77 56.67-1.57L56.67-1.57L56.67-1.57Q53.89-3.90 53.89-8.58L53.89-8.58L53.89-21.70L53.89-21.70Q53.89-26.88 57.12-29.76L57.12-29.76L57.12-29.76Q60.35-32.64 65.66-32.64L65.66-32.64L65.66-32.64Q70.98-32.64 73.95-29.79L73.95-29.79L73.95-29.79Q76.93-26.94 76.93-21.89L76.93-21.89L76.93-13.57L57.47-12.48L57.47-8.58L57.47-8.58Q57.47-5.50 59.46-3.97L59.46-3.97L59.46-3.97Q61.44-2.43 64.64-2.43L64.64-2.43L64.64-2.43Q69.12-2.43 73.92-4.99L73.92-4.99L75.33-2.24ZM73.34-22.34L73.34-22.34Q73.34-26.30 70.85-27.94L70.85-27.94L70.85-27.94Q68.35-29.57 65.60-29.57L65.60-29.57L65.60-29.57Q62.08-29.57 59.78-27.65L59.78-27.65L59.78-27.65Q57.47-25.73 57.47-21.63L57.47-21.63L57.47-16L73.34-16.77L73.34-22.34ZM106.43 0L106.43 0Q99.52 0.70 96.45 0.70L96.45 0.70L96.45 0.70Q89.73 0.70 85.76-1.79L85.76-1.79L85.76-1.79Q81.79-4.29 81.79-10.82L81.79-10.82L81.79-16.13L81.79-16.13Q81.79-22.46 86.21-24.64L86.21-24.64L86.21-24.64Q88.32-25.73 91.58-25.73L91.58-25.73L91.58-25.73Q94.59-25.73 97.66-24.74L97.66-24.74L97.66-24.74Q100.74-23.74 102.85-22.14L102.85-22.14L102.85-22.14Q102.85-25.66 100.80-27.74L100.80-27.74L100.80-27.74Q98.75-29.82 92.93-29.82L92.93-29.82L93.12-32.58L93.12-32.58Q99.26-32.58 102.18-30.62L102.18-30.62L102.18-30.62Q105.09-28.67 105.76-25.98L105.76-25.98L105.76-25.98Q106.43-23.30 106.43-19.07L106.43-19.07L106.43 0ZM102.85-19.39L102.85-19.39Q100.22-20.61 97.25-21.50L97.25-21.50L97.25-21.50Q94.27-22.40 91.78-22.40L91.78-22.40L91.78-22.40Q85.31-22.40 85.31-15.94L85.31-15.94L85.31-10.37L85.31-10.37Q85.31-6.21 88.19-4.32L88.19-4.32L88.19-4.32Q91.07-2.43 96.38-2.43L96.38-2.43L96.38-2.43Q99.14-2.43 102.85-2.94L102.85-2.94L102.85-19.39ZM118.34 0.83L118.34 0.83Q114.75-0.19 113.15-2.43L113.15-2.43L113.15-2.43Q111.55-4.67 111.55-8.45L111.55-8.45L111.55-44.80L115.14-44.80L115.14-32.06L122.82-32.06L121.28-28.67L115.14-28.67L115.14-8.45L115.14-8.45Q115.14-3.33 119.36-1.92L119.36-1.92L118.34 0.83ZM148.48 0L148.48-21.95L148.48-21.95Q148.48-25.86 146.21-27.62L146.21-27.62L146.21-27.62Q143.94-29.38 140.35-29.38L140.35-29.38L140.35-29.38Q138.18-29.38 135.94-28.77L135.94-28.77L135.94-28.77Q133.70-28.16 131.97-27.20L131.97-27.20L131.97 0L128.38 0L128.38-44.80L131.97-44.80L131.97-30.34L131.97-30.34Q133.57-31.42 135.81-32.03L135.81-32.03L135.81-32.03Q138.05-32.64 140.48-32.64L140.48-32.64L140.48-32.64Q143.81-32.64 146.56-31.42L146.56-31.42L146.56-31.42Q149.12-30.27 150.56-27.97L150.56-27.97L150.56-27.97Q152-25.66 152-22.14L152-22.14L152 0L148.48 0ZM179.52-2.24L179.52-2.24Q177.22-0.77 174.27 0L174.27 0L174.27 0Q171.33 0.77 168.38 0.77L168.38 0.77L168.38 0.77Q163.65 0.77 160.86-1.57L160.86-1.57L160.86-1.57Q158.08-3.90 158.08-8.58L158.08-8.58L158.08-21.70L158.08-21.70Q158.08-26.88 161.31-29.76L161.31-29.76L161.31-29.76Q164.54-32.64 169.86-32.64L169.86-32.64L169.86-32.64Q175.17-32.64 178.14-29.79L178.14-29.79L178.14-29.79Q181.12-26.94 181.12-21.89L181.12-21.89L181.12-13.57L161.66-12.48L161.66-8.58L161.66-8.58Q161.66-5.50 163.65-3.97L163.65-3.97L163.65-3.97Q165.63-2.43 168.83-2.43L168.83-2.43L168.83-2.43Q173.31-2.43 178.11-4.99L178.11-4.99L179.52-2.24ZM177.54-22.34L177.54-22.34Q177.54-26.30 175.04-27.94L175.04-27.94L175.04-27.94Q172.54-29.57 169.79-29.57L169.79-29.57L169.79-29.57Q166.27-29.57 163.97-27.65L163.97-27.65L163.97-27.65Q161.66-25.73 161.66-21.63L161.66-21.63L161.66-16L177.54-16.77L177.54-22.34ZM187.52 0L187.52-32.06L191.10-32.06L190.91-29.82L190.91-29.82Q193.92-32.64 198.78-32.64L198.78-32.64L198.78-32.64Q200.51-32.64 203.52-32.06L203.52-32.06L202.56-28.80L202.56-28.80Q200.51-29.44 198.27-29.44L198.27-29.44L198.27-29.44Q195.33-29.44 193.22-28.35L193.22-28.35L193.22-28.35Q191.10-27.26 191.10-25.09L191.10-25.09L191.10 0L187.52 0ZM250.05-1.47L250.05-1.47Q244.35 0.64 239.42 0.64L239.42 0.64L239.42 0.64Q233.86 0.64 230.40-2.30L230.40-2.30L230.40-2.30Q226.94-5.25 226.94-11.71L226.94-11.71L226.94-32.26L226.94-32.26Q226.94-37.12 228.32-39.62L228.32-39.62L228.32-39.62Q229.70-42.11 232.51-43.84L232.51-43.84L232.51-43.84Q235.33-45.44 239.42-45.44L239.42-45.44L239.42-45.44Q244.42-45.44 248.45-43.33L248.45-43.33L247.42-40.90L247.42-40.90Q243.78-42.24 240.51-42.24L240.51-42.24L240.51-42.24Q236.61-42.24 233.57-40.32L233.57-40.32L233.57-40.32Q230.53-38.40 230.53-32.83L230.53-32.83L230.53-11.84L230.53-11.84Q230.53-7.42 232.83-5.02L232.83-5.02L232.83-5.02Q235.14-2.62 239.74-2.62L239.74-2.62L239.74-2.62Q243.78-2.62 249.28-4.48L249.28-4.48L250.05-1.47ZM274.82 0L274.82-21.95L274.82-21.95Q274.82-25.86 272.54-27.62L272.54-27.62L272.54-27.62Q270.27-29.38 266.69-29.38L266.69-29.38L266.69-29.38Q264.51-29.38 262.27-28.77L262.27-28.77L262.27-28.77Q260.03-28.16 258.30-27.20L258.30-27.20L258.30 0L254.72 0L254.72-44.80L258.30-44.80L258.30-30.34L258.30-30.34Q259.90-31.42 262.14-32.03L262.14-32.03L262.14-32.03Q264.38-32.64 266.82-32.64L266.82-32.64L266.82-32.64Q270.14-32.64 272.90-31.42L272.90-31.42L272.90-31.42Q275.46-30.27 276.90-27.97L276.90-27.97L276.90-27.97Q278.34-25.66 278.34-22.14L278.34-22.14L278.34 0L274.82 0ZM305.86-2.24L305.86-2.24Q303.55-0.77 300.61 0L300.61 0L300.61 0Q297.66 0.77 294.72 0.77L294.72 0.77L294.72 0.77Q289.98 0.77 287.20-1.57L287.20-1.57L287.20-1.57Q284.42-3.90 284.42-8.58L284.42-8.58L284.42-21.70L284.42-21.70Q284.42-26.88 287.65-29.76L287.65-29.76L287.65-29.76Q290.88-32.64 296.19-32.64L296.19-32.64L296.19-32.64Q301.50-32.64 304.48-29.79L304.48-29.79L304.48-29.79Q307.46-26.94 307.46-21.89L307.46-21.89L307.46-13.57L288.00-12.48L288.00-8.58L288.00-8.58Q288.00-5.50 289.98-3.97L289.98-3.97L289.98-3.97Q291.97-2.43 295.17-2.43L295.17-2.43L295.17-2.43Q299.65-2.43 304.45-4.99L304.45-4.99L305.86-2.24ZM303.87-22.34L303.87-22.34Q303.87-26.30 301.38-27.94L301.38-27.94L301.38-27.94Q298.88-29.57 296.13-29.57L296.13-29.57L296.13-29.57Q292.61-29.57 290.30-27.65L290.30-27.65L290.30-27.65Q288.00-25.73 288.00-21.63L288.00-21.63L288.00-16L303.87-16.77L303.87-22.34ZM333.44 0L321.15-20.29L317.82-17.41L317.82 0L314.24 0L314.24-44.80L317.82-44.80L317.82-21.44L330.62-33.28L333.18-30.78L323.71-22.53L323.71-22.53Q328.06-15.30 337.73 0L337.73 0L333.44 0ZM361.41-2.24L361.41-2.24Q359.10-0.77 356.16 0L356.16 0L356.16 0Q353.22 0.77 350.27 0.77L350.27 0.77L350.27 0.77Q345.54 0.77 342.75-1.57L342.75-1.57L342.75-1.57Q339.97-3.90 339.97-8.58L339.97-8.58L339.97-21.70L339.97-21.70Q339.97-26.88 343.20-29.76L343.20-29.76L343.20-29.76Q346.43-32.64 351.74-32.64L351.74-32.64L351.74-32.64Q357.06-32.64 360.03-29.79L360.03-29.79L360.03-29.79Q363.01-26.94 363.01-21.89L363.01-21.89L363.01-13.57L343.55-12.48L343.55-8.58L343.55-8.58Q343.55-5.50 345.54-3.97L345.54-3.97L345.54-3.97Q347.52-2.43 350.72-2.43L350.72-2.43L350.72-2.43Q355.20-2.43 360.00-4.99L360.00-4.99L361.41-2.24ZM359.42-22.34L359.42-22.34Q359.42-26.30 356.93-27.94L356.93-27.94L356.93-27.94Q354.43-29.57 351.68-29.57L351.68-29.57L351.68-29.57Q348.16-29.57 345.86-27.65L345.86-27.65L345.86-27.65Q343.55-25.73 343.55-21.63L343.55-21.63L343.55-16L359.42-16.77L359.42-22.34ZM369.41 0L369.41-32.06L372.99-32.06L372.80-29.82L372.80-29.82Q375.81-32.64 380.67-32.64L380.67-32.64L380.67-32.64Q382.40-32.64 385.41-32.06L385.41-32.06L384.45-28.80L384.45-28.80Q382.40-29.44 380.16-29.44L380.16-29.44L380.16-29.44Q377.22-29.44 375.10-28.35L375.10-28.35L375.10-28.35Q372.99-27.26 372.99-25.09L372.99-25.09L372.99 0L369.41 0Z" fill="#ccc"></path></g></g><style>text {
  font-size: 64px;
  font-family: Arial Black;
  dominant-baseline: central;
  text-anchor: middle;
}</style></svg>